<svg xmlns="http://www.w3.org/2000/svg" xmlns:xlink="http://www.w3.org/1999/xlink" width="500" zoomAndPan="magnify" viewBox="0 0 375 374.999991" height="500" preserveAspectRatio="xMidYMid meet" version="1.0"><defs><g/></defs><rect x="-37.5" width="450" fill="#ffffff" y="-37.499999" height="449.999989" fill-opacity="1"/><rect x="-37.5" width="450" fill="#ffffff" y="-37.499999" height="449.999989" fill-opacity="1"/><rect x="-37.5" width="450" fill="#fbfaf9" y="-37.499999" height="449.999989" fill-opacity="1"/><g fill="#231f20" fill-opacity="1"><g transform="translate(96.523909, 183.088686)"><g><path d="M 31 -12.472656 C 29.3125 -5.136719 25.203125 -1.0625 19.40625 -1.0625 C 12.105469 -1.0625 8.878906 -7.558594 8.878906 -15.445312 C 8.878906 -23.109375 11.996094 -29.3125 17.535156 -29.3125 C 21.679688 -29.3125 23.773438 -25.277344 24.617188 -19.917969 L 30.449219 -21.496094 C 27.917969 -26.78125 23.734375 -30.082031 17.535156 -30.082031 C 9.132812 -30.082031 2.199219 -24.359375 2.199219 -15.039062 C 2.199219 -5.722656 8.21875 0.734375 17.644531 0.734375 C 25.421875 0.734375 29.789062 -4.292969 31.695312 -12.472656 Z M 31 -12.472656 "/></g></g></g><g fill="#231f20" fill-opacity="1"><g transform="translate(127.851226, 183.088686)"><g><path d="M 27.21875 -21.496094 C 27.21875 -24.910156 27.328125 -26.558594 27.625 -29.347656 L 20.652344 -29.347656 C 20.945312 -26.558594 21.058594 -24.910156 21.058594 -21.496094 L 21.058594 -15.078125 L 9.132812 -15.078125 L 9.132812 -21.496094 C 9.132812 -24.910156 9.246094 -26.558594 9.539062 -29.347656 L 2.566406 -29.347656 C 2.863281 -26.558594 2.972656 -24.910156 2.972656 -21.496094 L 2.972656 -7.851562 C 2.972656 -4.4375 2.863281 -2.789062 2.566406 0 L 9.539062 0 C 9.246094 -2.789062 9.132812 -4.4375 9.132812 -7.851562 L 9.132812 -14.269531 L 21.058594 -14.269531 L 21.058594 -7.851562 C 21.058594 -4.4375 20.945312 -2.789062 20.652344 0 L 27.625 0 C 27.328125 -2.789062 27.21875 -4.4375 27.21875 -7.851562 Z M 27.21875 -21.496094 "/></g></g></g><g fill="#231f20" fill-opacity="1"><g transform="translate(156.207208, 183.088686)"><g><path d="M 2.566406 -29.347656 C 2.898438 -26.558594 3.007812 -24.910156 3.007812 -21.496094 L 3.007812 -7.851562 C 3.007812 -4.4375 2.898438 -2.789062 2.566406 0 L 21.972656 0 L 23.332031 -2.863281 C 18.414062 -1.027344 16.25 -0.769531 12.398438 -0.769531 L 9.171875 -0.769531 L 9.171875 -15.078125 L 11.117188 -15.078125 C 13.058594 -15.078125 15.039062 -15.078125 18.453125 -14.710938 L 18.453125 -16.214844 C 15.039062 -15.847656 13.058594 -15.847656 11.117188 -15.847656 L 9.171875 -15.847656 L 9.171875 -28.578125 L 12.324219 -28.578125 C 14.378906 -28.578125 17.351562 -28.246094 20.398438 -26.375 L 22.523438 -29.347656 Z M 2.566406 -29.347656 "/></g></g></g><g fill="#231f20" fill-opacity="1"><g transform="translate(178.803931, 183.088686)"><g><path d="M 23.292969 -6.824219 C 21.460938 -11.261719 18.453125 -13.023438 14.820312 -13.683594 C 20.46875 -14.125 24.910156 -15.957031 24.910156 -21.460938 C 24.910156 -27.988281 18.671875 -29.347656 11.628906 -29.347656 L 2.566406 -29.347656 C 2.863281 -26.558594 2.972656 -24.910156 2.972656 -21.496094 L 2.972656 -7.851562 C 2.972656 -4.4375 2.863281 -2.789062 2.566406 0 L 9.539062 0 C 9.246094 -2.789062 9.132812 -4.4375 9.132812 -7.851562 L 9.132812 -13.574219 L 9.941406 -13.574219 C 13.425781 -13.574219 14.929688 -12.546875 16.910156 -6.566406 C 18.78125 -0.953125 22.964844 0 30.007812 0 L 30.007812 -0.695312 C 26.707031 -0.695312 25.128906 -2.347656 23.292969 -6.824219 Z M 9.132812 -14.34375 L 9.132812 -28.578125 L 11.519531 -28.578125 C 15.296875 -28.578125 18.636719 -27.109375 18.636719 -21.460938 C 18.636719 -15.8125 15.296875 -14.34375 11.519531 -14.34375 Z M 9.132812 -14.34375 "/></g></g></g><g fill="#231f20" fill-opacity="1"><g transform="translate(208.223725, 183.088686)"><g><path d="M 31 -12.472656 C 29.3125 -5.136719 25.203125 -1.0625 19.40625 -1.0625 C 12.105469 -1.0625 8.878906 -7.558594 8.878906 -15.445312 C 8.878906 -23.109375 11.996094 -29.3125 17.535156 -29.3125 C 21.679688 -29.3125 23.773438 -25.277344 24.617188 -19.917969 L 30.449219 -21.496094 C 27.917969 -26.78125 23.734375 -30.082031 17.535156 -30.082031 C 9.132812 -30.082031 2.199219 -24.359375 2.199219 -15.039062 C 2.199219 -5.722656 8.21875 0.734375 17.644531 0.734375 C 25.421875 0.734375 29.789062 -4.292969 31.695312 -12.472656 Z M 31 -12.472656 "/></g></g></g><g fill="#231f20" fill-opacity="1"><g transform="translate(239.551042, 183.088686)"><g><path d="M 27.21875 -21.496094 C 27.21875 -24.910156 27.328125 -26.558594 27.625 -29.347656 L 20.652344 -29.347656 C 20.945312 -26.558594 21.058594 -24.910156 21.058594 -21.496094 L 21.058594 -15.078125 L 9.132812 -15.078125 L 9.132812 -21.496094 C 9.132812 -24.910156 9.246094 -26.558594 9.539062 -29.347656 L 2.566406 -29.347656 C 2.863281 -26.558594 2.972656 -24.910156 2.972656 -21.496094 L 2.972656 -7.851562 C 2.972656 -4.4375 2.863281 -2.789062 2.566406 0 L 9.539062 0 C 9.246094 -2.789062 9.132812 -4.4375 9.132812 -7.851562 L 9.132812 -14.269531 L 21.058594 -14.269531 L 21.058594 -7.851562 C 21.058594 -4.4375 20.945312 -2.789062 20.652344 0 L 27.625 0 C 27.328125 -2.789062 27.21875 -4.4375 27.21875 -7.851562 Z M 27.21875 -21.496094 "/></g></g></g><g fill="#231f20" fill-opacity="1"><g transform="translate(267.907015, 183.088686)"><g><path d="M 5.28125 0.734375 L 7.996094 -1.980469 L 5.28125 -4.695312 L 2.566406 -1.980469 Z M 5.28125 0.734375 "/></g></g></g></svg>