<svg xmlns="http://www.w3.org/2000/svg" version="1.1" xmlns:xlink="http://www.w3.org/1999/xlink" 
xmlns:svgjs="http://svgjs.dev/svgjs" width="1000" height="750" viewBox="0 0 1000 750"><rect width="1000" height="750" 
fill="#000000"></rect><g transform="matrix(0.834,0,0,0.834,82.49454545454546,115.4193570850203)"><svg viewBox="0 0 396 247" 
data-background-color="#000000" preserveAspectRatio="xMidYMid meet" height="623" width="1000" xmlns="http://www.w3.org/2000/svg" 
xmlns:xlink="http://www.w3.org/1999/xlink"><g id="tight-bounds" transform="matrix(1,0,0,1,0.2400000000000091,-0.09999999999999432)">
<svg viewBox="0 0 395.52 247.2" height="247.2" width="395.52"><g><svg></svg></g><g><svg viewBox="0 0 395.52 247.2" height="247.2" 
width="395.52"><g transform="matrix(1,0,0,1,75.54432000000001,65.12753854447439)"><svg viewBox="0 0 244.43135999999996 116.9449229110512" 
height="116.9449229110512" width="244.43135999999996"><g><svg viewBox="0 0 244.43135999999996 116.9449229110512" height="116.9449229110512" 
width="244.43135999999996"><g><svg viewBox="0 0 244.43135999999996 116.9449229110512" height="116.9449229110512" width="244.43135999999996">
<g>
<svg viewBox="0 0 244.43135999999996 116.9449229110512" height="116.9449229110512" width="244.43135999999996">
<g>
<svg viewBox="0 0 244.43135999999996 116.9449229110512" height="116.9449229110512" width="244.43135999999996">
<g>
<svg viewBox="0 0 244.43135999999996 116.9449229110512" height="116.9449229110512" width="244.43135999999996">
<g transform="matrix(1,0,0,1,0,0)">
<svg width="244.43135999999996" viewBox="3 -34.900001525878906 74.19000244140625 35.5" height="116.9449229110512" 
data-palette-color="#89939e">
<path d="M3 0L3-34.3 9.4-34.3 9.4-6 23.9-6 23.9 0 3 0ZM36.9 0.6Q31.75 0.6 29.17-2.78 26.6-6.15 26.6-13.15L26.6-13.15Q26.6-26.9 36.7-26.9L36.7-26.9Q41.5-26.9 43.85-23.55 46.2-20.2 46.2-13.15L46.2-13.15 46.2-11.65 32.85-11.65Q32.9-7.95 33.82-6.13 34.75-4.3 36.9-4.3L36.9-4.3Q38.45-4.3 39.35-5.63 40.25-6.95 40.25-9.3L40.25-9.3 46.2-9.3Q46.2-4.4 43.65-1.9 41.1 0.6 36.9 0.6L36.9 0.6ZM32.9-16L39.9-16Q39.9-22 36.7-22L36.7-22Q34.85-22 33.95-20.48 33.05-18.95 32.9-16L32.9-16ZM62.95-13.15L62.95-18.65 77.19-18.65 77.19 0 73.05 0 71.94-3.8Q70.3-1.65 67.92-0.53 65.55 0.6 62.8 0.6L62.8 0.6Q56.34 0.6 52.95-3.78 49.55-8.15 49.55-17.15L49.55-17.15Q49.55-26.1 53.3-30.5 57.05-34.9 64.09-34.9L64.09-34.9Q67.64-34.9 70.62-33.43 73.59-31.95 75.39-29.1 77.19-26.25 77.19-22.3L77.19-22.3 70.64-22.3Q70.64-25.65 68.72-27.53 66.8-29.4 63.89-29.4L63.89-29.4Q59.99-29.4 58.07-26.55 56.14-23.7 56.14-18.4L56.14-18.4 56.14-15.9Q56.14-10.55 58.07-7.73 59.99-4.9 63.95-4.9L63.95-4.9Q66.89-4.9 68.77-7.18 70.64-9.45 70.64-13.15L70.64-13.15 62.95-13.15Z" 
opacity="1" transform="matrix(1,0,0,1,0,0)" fill="#89939e" class="undefined-text-0" data-fill-palette-color="primary" id="text-0">
</path>
</svg>
</g>
</svg>
</g>
</svg>
</g>
</svg>
</g>
</svg>
</g>
</svg>
</g>
</svg>
</g>
<path d="M158.247 59.128L158.247 10.676 384.095 10.676 384.095 236.524 158.247 236.524 158.247 188.072 168.793 188.072 168.793 225.978 373.549 225.978 373.549 21.222 168.793 21.222 168.793 59.128Z" 
fill="#89939e" stroke="transparent" data-fill-palette-color="primary">
</path></svg></g><defs></defs></svg><rect width="395.52" height="247.2" fill="none" stroke="none" 
visibility="hidden">
</rect>
</g>
</svg>
</g>
</svg>